<svg id="Layer_2" enable-background="new 0 0 512 512" height="512" viewBox="0 0 512 512" width="512" xmlns="http://www.w3.org/2000/svg"><g id="guiding_team"><g><g><g><g><g><path d="m376.5158 129.5997c0 23.0034-6.2801 44.5187-17.1971 62.8862-1.0168 1.7123-2.0713 3.396-3.1682 5.0557-16.4344 24.8157-41.625 43.1879-71.0855 50.5807-9.307 2.3371-19.0424 3.5771-29.065 3.5771s-19.758-1.24-29.065-3.5771c-29.4605-7.3927-54.6511-25.765-71.0855-50.5807-1.0969-1.6598-2.1514-3.3434-3.1682-5.0557-10.917-18.3674-17.1971-39.8828-17.1971-62.8862 0-67.4314 53.9591-122.0997 120.5158-122.0997s120.5158 54.6683 120.5158 122.0997z" fill="#fff"/></g></g></g><g><g><g><path d="m256 259.1993c-10.4482 0-20.8408-1.2793-30.8916-3.8027-30.8887-7.751-57.7061-26.8271-75.5117-53.7148-1.1582-1.752-2.2891-3.5566-3.3643-5.3682-11.9375-20.083-18.248-43.1543-18.248-66.7139 0-71.4619 57.4277-129.5996 128.0156-129.5996s128.0156 58.1377 128.0156 129.5996c0 23.5596-6.3105 46.6309-18.25 66.7178-1.0732 1.8076-2.2041 3.6123-3.3584 5.3594-17.8096 26.8926-44.627 45.9688-75.5166 53.7197-10.0498 2.5234-20.4424 3.8027-30.8906 3.8027zm0-244.1992c-62.3174 0-113.0156 51.4092-113.0156 114.5996 0 20.8633 5.583 41.2842 16.1445 59.0537.9551 1.6084 1.9561 3.2061 2.9775 4.752 15.7305 23.7539 39.4033 40.6045 66.6533 47.4424 17.7168 4.4473 36.7646 4.4473 54.4795 0 27.251-6.8379 50.9238-23.6885 66.6582-47.4473 1.0176-1.541 2.0186-3.1387 2.9717-4.7432 10.5635-17.7734 16.1465-38.1943 16.1465-59.0576 0-63.1904-50.6982-114.5996-113.0156-114.5996z"/></g></g></g></g><g><g><g><g><g><path d="m359.3187 192.4859c-1.0168 1.7123-2.0713 3.396-3.1682 5.0557-16.4344 24.8157-41.625 43.1879-71.0855 50.5807-9.307 2.3371-19.0424 3.5771-29.065 3.5771s-19.758-1.24-29.065-3.5771c-29.4605-7.3927-54.6511-25.765-71.0855-50.5807-1.0969-1.6598-2.1514-3.3434-3.1682-5.0557 13.2473-25.207 35.2226-44.9909 61.8396-55.2215 12.8942-4.9507 26.8712-7.6647 41.4791-7.6647s28.5848 2.7139 41.479 7.6647c26.6171 10.2305 48.5924 30.0145 61.8397 55.2215z" fill="#fff"/></g></g></g><g><g><g><path d="m256 259.1993c-10.4482 0-20.8418-1.2793-30.8916-3.8027-30.8887-7.751-57.7061-26.8271-75.5117-53.7148-1.1582-1.752-2.2891-3.5566-3.3643-5.3682l-2.1406-3.6055 1.9512-3.7119c14.2031-27.0273 37.5674-47.8857 65.7871-58.7324 14.1094-5.418 28.9697-8.1641 44.1699-8.1641s30.0605 2.7461 44.168 8.1631c28.2217 10.8477 51.5859 31.7061 65.7891 58.7334l1.9512 3.7119-2.1406 3.6055c-1.0752 1.8115-2.2061 3.6162-3.3604 5.3633-17.8096 26.8926-44.627 45.9688-75.5166 53.7197-10.0489 2.5234-20.4425 3.8027-30.8907 3.8027zm-94.6387-66.9355c.2471.3828.4951.7637.7451 1.1416 15.7305 23.7539 39.4033 40.6045 66.6533 47.4424 17.7168 4.4473 36.7646 4.4473 54.4795 0 27.251-6.8379 50.9238-23.6885 66.6582-47.4473.248-.376.4951-.7549.7412-1.1367-12.6445-22.001-32.335-38.96-55.8496-47.998-12.3828-4.7549-25.4336-7.166-38.7891-7.166s-26.4062 2.4111-38.791 7.167c-23.5136 9.037-43.203 25.996-55.8476 47.997z"/></g></g></g></g><g><g><g><g><ellipse cx="256" cy="101.15" fill="#fff" rx="54.693" ry="55.412"/></g></g></g><g><g><g><path d="m256 164.0626c-34.2939 0-62.1934-28.2227-62.1934-62.9121s27.8995-62.9121 62.1934-62.9121 62.1934 28.2227 62.1934 62.9121-27.8995 62.9121-62.1934 62.9121zm0-110.8242c-26.0225 0-47.1934 21.4932-47.1934 47.9121s21.1709 47.9121 47.1934 47.9121 47.1934-21.4932 47.1934-47.9121-21.1709-47.9121-47.1934-47.9121z"/></g></g></g></g></g></g><g><g><g><g><g><path d="m504.5 340.5954c0 13.1153-3.5805 25.3821-9.8048 35.8542-.5797.9763-1.1809 1.9362-1.8063 2.8825-9.37 14.1485-23.7322 24.6233-40.529 28.8383-5.3063 1.3325-10.8569 2.0395-16.5712 2.0395s-11.2649-.707-16.5713-2.0395c-16.7967-4.2149-31.159-14.6897-40.529-28.8383-.6254-.9463-1.2266-1.9062-1.8063-2.8825-6.2243-10.4721-9.8048-22.7389-9.8048-35.8542 0-38.4456 30.7644-69.6144 68.7114-69.6144 37.9468 0 68.7113 31.1687 68.7113 69.6144z" fill="#fff"/></g></g></g><g><g><g><path d="m435.7891 417.7101c-6.2236 0-12.4141-.7627-18.3984-2.2656-18.3916-4.6152-34.3584-15.9697-44.9551-31.9707-.6924-1.0479-1.3643-2.1201-2.002-3.1943-7.1016-11.9492-10.8564-25.6729-10.8564-39.6836 0-42.5215 34.1885-77.1152 76.2119-77.1152 42.0225 0 76.2109 34.5938 76.2109 77.1152 0 14.0127-3.7549 27.7363-10.8574 39.6855-.6465 1.0879-1.3193 2.1621-1.999 3.1885-10.5986 16.0049-26.5645 27.3594-44.958 31.9746-5.9835 1.5029-12.1739 2.2656-18.3965 2.2656zm0-139.2295c-33.752 0-61.2119 27.8652-61.2119 62.1152 0 11.3154 3.0264 22.3877 8.752 32.0215.5176.8721 1.0615 1.7393 1.6172 2.5811 8.5205 12.8662 21.3418 21.9951 36.0967 25.6973 9.585 2.4092 19.9053 2.4092 29.4902 0 14.7559-3.7021 27.5771-12.8311 36.1025-25.7051.5439-.8223 1.0869-1.6885 1.6113-2.5713 5.7266-9.6338 8.7529-20.707 8.7529-32.0234 0-34.2501-27.459-62.1153-61.2109-62.1153z"/></g></g></g></g><g><g><g><g><g><path d="m494.6952 376.4496c-.5797.9763-1.1809 1.9362-1.8063 2.8825-9.37 14.1485-23.7322 24.6233-40.529 28.8383-5.3063 1.3325-10.8569 2.0395-16.5712 2.0395s-11.2649-.707-16.5713-2.0395c-16.7967-4.2149-31.159-14.6897-40.529-28.8383-.6254-.9463-1.2266-1.9062-1.8063-2.8825 7.5529-14.3716 20.0819-25.6513 35.2575-31.4842 7.3516-2.8226 15.3205-4.37 23.649-4.37 8.3286 0 16.2975 1.5474 23.649 4.37 15.1756 5.8328 27.7048 17.1125 35.2576 31.4842z" fill="#fff"/></g></g></g><g><g><g><path d="m435.7891 417.7101c-6.2236 0-12.4141-.7627-18.3984-2.2656-18.3916-4.6152-34.3574-15.9697-44.9551-31.9707-.6924-1.0479-1.3643-2.1201-2.002-3.1943l-2.1426-3.6064 1.9521-3.7129c8.4629-16.1025 22.3857-28.5312 39.2061-34.9961 8.415-3.2305 17.2764-4.8682 26.3398-4.8682 9.0625 0 17.9238 1.6377 26.3369 4.8672 16.8223 6.4658 30.7451 18.8945 39.208 34.9971l1.9521 3.7129-2.1426 3.6064c-.6475 1.0898-1.3203 2.1641-2 3.1904-10.5986 16.0049-26.5645 27.3594-44.958 31.9746-5.9833 1.5029-12.1737 2.2656-18.3963 2.2656zm-50.1475-41.4834c8.5146 12.3232 21.043 21.0654 35.4014 24.6689 9.585 2.4092 19.9053 2.4092 29.4902 0 14.3574-3.6025 26.8828-12.3428 35.4023-24.6699-6.8574-11.0752-17.0869-19.6084-29.1885-24.2598-6.6885-2.5674-13.7402-3.8701-20.958-3.8701-7.2188 0-14.2705 1.3027-20.9619 3.8711-12.0986 4.6504-22.3281 13.1846-29.1855 24.2598z"/></g></g></g></g><g><g><g><g><ellipse cx="435.789" cy="324.375" fill="#fff" rx="31.183" ry="31.593"/></g></g></g><g><g><g><path d="m435.7891 363.4679c-21.3301 0-38.6836-17.5371-38.6836-39.0928s17.3535-39.0928 38.6836-39.0928 38.6826 17.5371 38.6826 39.0928-17.3526 39.0928-38.6826 39.0928zm0-63.1856c-13.0596 0-23.6836 10.8076-23.6836 24.0928s10.624 24.0928 23.6836 24.0928c13.0586 0 23.6826-10.8076 23.6826-24.0928s-10.624-24.0928-23.6826-24.0928z"/></g></g></g></g></g></g><g><g><g><g><g><path d="m144.9227 340.5954c0 13.1153-3.5805 25.3821-9.8048 35.8542-.5797.9763-1.181 1.9362-1.8064 2.8825-9.37 14.1485-23.7322 24.6233-40.529 28.8383-5.3063 1.3325-10.8569 2.0395-16.5712 2.0395s-11.2649-.707-16.5712-2.0395c-16.7967-4.2149-31.159-14.6897-40.529-28.8383-.6254-.9463-1.2266-1.9062-1.8064-2.8825-6.2242-10.4721-9.8047-22.739-9.8047-35.8542 0-38.4456 30.7644-69.6144 68.7113-69.6144s68.7114 31.1687 68.7114 69.6144z" fill="#fff"/></g></g></g><g><g><g><path d="m76.2109 417.7101c-6.2227 0-12.4131-.7627-18.3984-2.2656-18.3916-4.6152-34.3574-15.9697-44.9541-31.9707-.6816-1.0303-1.3545-2.1045-2.002-3.1943-7.1015-11.9473-10.8564-25.671-10.8564-39.6837 0-42.5215 34.1885-77.1152 76.2109-77.1152 42.0234 0 76.2119 34.5938 76.2119 77.1152 0 14.0107-3.7549 27.7344-10.8574 39.6855-.6367 1.0723-1.3086 2.1445-1.9961 3.1846-10.6016 16.0088-26.5684 27.3633-44.9619 31.9785-5.9824 1.503-12.1728 2.2657-18.3965 2.2657zm0-139.2295c-33.7519 0-61.2109 27.8652-61.2109 62.1152 0 11.3164 3.0264 22.3896 8.752 32.0215.5254.8848 1.0684 1.751 1.6143 2.5771 8.5234 12.8701 21.3447 21.999 36.0986 25.7012 9.5889 2.4082 19.9092 2.4082 29.4902 0 14.7568-3.7021 27.5781-12.8311 36.1035-25.7051.5508-.834 1.0947-1.7012 1.6113-2.5713 5.7266-9.6357 8.7529-20.708 8.7529-32.0234.0001-34.25-27.4599-62.1152-61.2119-62.1152z"/></g></g></g></g><g><g><g><g><g><path d="m135.1179 376.4496c-.5797.9763-1.181 1.9362-1.8064 2.8825-9.37 14.1485-23.7322 24.6233-40.529 28.8383-5.3063 1.3325-10.8569 2.0395-16.5712 2.0395s-11.2649-.707-16.5712-2.0395c-16.7967-4.2149-31.159-14.6897-40.529-28.8383-.6254-.9463-1.2266-1.9062-1.8064-2.8825 7.5529-14.3716 20.082-25.6513 35.2575-31.4842 7.3516-2.8226 15.3205-4.37 23.649-4.37s16.2975 1.5474 23.649 4.37c15.1757 5.8328 27.7048 17.1125 35.2577 31.4842z" fill="#fff"/></g></g></g><g><g><g><path d="m76.2109 417.7101c-6.2227 0-12.4131-.7627-18.3984-2.2656-18.3916-4.6152-34.3574-15.9697-44.9541-31.9707-.6816-1.0303-1.3545-2.1045-2.002-3.1943l-2.1426-3.6064 1.9521-3.7129c8.4629-16.1025 22.3857-28.5312 39.2061-34.9961 8.415-3.2305 17.2764-4.8682 26.3389-4.8682 9.0635 0 17.9248 1.6377 26.3369 4.8672 16.8232 6.4658 30.7461 18.8945 39.209 34.9971l1.9521 3.7129-2.1426 3.6064c-.6377 1.0742-1.3096 2.1465-1.9971 3.1865-10.6025 16.0088-26.5684 27.3633-44.9619 31.9785-5.9823 1.5029-12.1727 2.2656-18.3964 2.2656zm-50.1464-41.4834c8.5176 12.3262 21.0439 21.0664 35.4004 24.6689 9.5889 2.4082 19.9092 2.4082 29.4902 0 14.3574-3.6025 26.8838-12.3428 35.4033-24.6699-6.8574-11.0752-17.0869-19.6084-29.1885-24.2598-6.6885-2.5674-13.7402-3.8701-20.959-3.8701-7.2178 0-14.2695 1.3027-20.9609 3.8711-12.0986 4.6504-22.3281 13.1846-29.1855 24.2598z"/></g></g></g></g><g><g><g><g><ellipse cx="76.211" cy="324.375" fill="#fff" rx="31.183" ry="31.593"/></g></g></g><g><g><g><path d="m76.2109 363.4679c-21.3301 0-38.6826-17.5371-38.6826-39.0928s17.3525-39.0928 38.6826-39.0928 38.6836 17.5371 38.6836 39.0928-17.3535 39.0928-38.6836 39.0928zm0-63.1856c-13.0586 0-23.6826 10.8076-23.6826 24.0928s10.624 24.0928 23.6826 24.0928c13.0596 0 23.6836-10.8076 23.6836-24.0928s-10.624-24.0928-23.6836-24.0928z"/></g></g></g></g></g></g><g><g><g><g><g><path d="m324.7113 434.8856c0 13.1152-3.5805 25.3821-9.8048 35.8542-.5797.9763-1.1809 1.9362-1.8064 2.8825-9.3699 14.1485-23.7322 24.6233-40.529 28.8383-5.3062 1.3324-10.8568 2.0394-16.5711 2.0394s-11.2649-.707-16.5712-2.0395c-16.7967-4.2149-31.159-14.6897-40.529-28.8383-.6254-.9463-1.2266-1.9062-1.8064-2.8825-6.2243-10.4721-9.8048-22.7389-9.8048-35.8542 0-38.4456 30.7644-69.6144 68.7113-69.6144 37.947 0 68.7114 31.1689 68.7114 69.6145z" fill="#fff"/></g></g></g><g><g><g><path d="m256 512.0001c-6.2227 0-12.4131-.7627-18.3984-2.2656-18.3916-4.6152-34.3584-15.9697-44.9551-31.9707-.6963-1.0547-1.3691-2.1279-2.0039-3.1992-7.0986-11.9424-10.8535-25.666-10.8535-39.6787 0-42.5205 34.1885-77.1143 76.2109-77.1143s76.2109 34.5938 76.2109 77.1143c0 14.0127-3.7549 27.7363-10.8574 39.6855-.6309 1.0645-1.3037 2.1377-1.9951 3.1846-10.6016 16.0088-26.5684 27.3633-44.9619 31.9785-5.9834 1.5029-12.1738 2.2656-18.3965 2.2656zm0-139.2285c-33.752 0-61.2109 27.8643-61.2109 62.1143 0 11.3164 3.0264 22.3896 8.752 32.0215.5156.8701 1.0586 1.7363 1.6162 2.5811 8.5205 12.8662 21.3418 21.9951 36.0967 25.6973 9.5879 2.4082 19.9062 2.4082 29.4902 0 14.7568-3.7021 27.5781-12.8311 36.1035-25.7051.5527-.8369 1.0957-1.7031 1.6074-2.5664 5.7295-9.6387 8.7559-20.7119 8.7559-32.0283-.0001-34.2501-27.459-62.1144-61.211-62.1144z"/></g></g></g></g><g><g><g><g><g><path d="m314.9066 470.7397c-.5797.9763-1.1809 1.9362-1.8064 2.8825-9.3699 14.1485-23.7322 24.6233-40.529 28.8383-5.3063 1.3325-10.8569 2.0395-16.5712 2.0395s-11.2649-.707-16.5712-2.0395c-16.7967-4.2149-31.159-14.6897-40.529-28.8383-.6254-.9463-1.2266-1.9062-1.8064-2.8825 7.5529-14.3716 20.082-25.6513 35.2575-31.4842 7.3516-2.8226 15.3205-4.3699 23.649-4.3699 8.3286 0 16.2975 1.5473 23.649 4.3699 15.1757 5.8329 27.7048 17.1127 35.2577 31.4842z" fill="#fff"/></g></g></g><g><g><g><path d="m256 512.0001c-6.2227 0-12.4131-.7627-18.3984-2.2656-18.3916-4.6152-34.3574-15.9697-44.9551-31.9707-.6963-1.0547-1.3682-2.1279-2.0039-3.1992l-2.1377-3.6045 1.9502-3.71c8.4629-16.1025 22.3857-28.5312 39.2051-34.9951 8.4141-3.2314 17.2754-4.8691 26.3398-4.8691s17.9258 1.6377 26.3379 4.8691c16.8213 6.4639 30.7441 18.8926 39.207 34.9951l1.9502 3.71-2.1377 3.6045c-.6357 1.0713-1.3076 2.1445-1.999 3.1914-10.6025 16.0088-26.5684 27.3633-44.9619 31.9785-5.9834 1.5029-12.1738 2.2656-18.3965 2.2656zm-50.1465-41.4834c8.5146 12.3242 21.042 21.0654 35.4004 24.6689 9.5879 2.4082 19.9062 2.4082 29.4902 0 14.3574-3.6025 26.8828-12.3418 35.4023-24.6689-6.8564-11.0752-17.0869-19.6094-29.1875-24.2598-6.6875-2.5684-13.7402-3.8711-20.959-3.8711s-14.2715 1.3027-20.9609 3.8711c-12.0986 4.6504-22.329 13.1846-29.1855 24.2598z"/></g></g></g></g><g><g><g><g><ellipse cx="256" cy="418.665" fill="#fff" rx="31.183" ry="31.593"/></g></g></g><g><g><g><path d="m256 457.7579c-21.3301 0-38.6826-17.5371-38.6826-39.0928s17.3525-39.0927 38.6826-39.0927 38.6826 17.5371 38.6826 39.0928-17.3525 39.0927-38.6826 39.0927zm0-63.1855c-13.0586 0-23.6826 10.8076-23.6826 24.0928s10.624 24.0928 23.6826 24.0928 23.6826-10.8076 23.6826-24.0928-10.624-24.0928-23.6826-24.0928z"/></g></g></g></g></g></g><g><g><g><g><path d="m256 320.838v-44.739" fill="#fff"/></g></g></g><g><g><g><path d="m248.5 276.099h15v44.739h-15z"/></g></g></g></g><g><g><g><g><path d="m122.528 264.826 31.225-31.636" fill="#fff"/></g></g></g><g><g><g><path d="m115.916 241.508h44.449v15h-44.449z" transform="matrix(.703 -.712 .712 .703 -136.121 172.404)"/></g></g></g></g><g><g><g><g><path d="m389.472 264.826-31.225-31.636" fill="#fff"/></g></g></g><g><g><g><path d="m366.359 226.783h15v44.449h-15z" transform="matrix(.712 -.703 .703 .712 -67.141 334.416)"/></g></g></g></g></g></svg>